<?xml version="1.0" encoding="UTF-8" standalone="no"?>
<!-- Created with Inkscape (http://www.inkscape.org/) -->

<svg
   width="1000"
   height="500"
   viewBox="0 0 1000 500"
   version="1.1"
   id="svg1"
   inkscape:version="1.3.2 (091e20e, 2023-11-25, custom)"
   sodipodi:docname="drawing.svg"
   xmlns:inkscape="http://www.inkscape.org/namespaces/inkscape"
   xmlns:sodipodi="http://sodipodi.sourceforge.net/DTD/sodipodi-0.dtd"
   xmlns:xlink="http://www.w3.org/1999/xlink"
   xmlns="http://www.w3.org/2000/svg"
   xmlns:svg="http://www.w3.org/2000/svg">
  <sodipodi:namedview
     id="namedview1"
     pagecolor="#ffffff"
     bordercolor="#000000"
     borderopacity="0.25"
     inkscape:showpageshadow="false"
     inkscape:pageopacity="0.0"
     inkscape:pagecheckerboard="0"
     inkscape:deskcolor="#d1d1d1"
     inkscape:document-units="px"
     showborder="false"
     borderlayer="false"
     inkscape:zoom="1.1388889"
     inkscape:cx="477.65853"
     inkscape:cy="234.43902"
     inkscape:window-width="1920"
     inkscape:window-height="991"
     inkscape:window-x="-9"
     inkscape:window-y="-9"
     inkscape:window-maximized="1"
     inkscape:current-layer="g3" />
  <defs
     id="defs1">
    <linearGradient
       id="linearGradient193"
       inkscape:collect="always">
      <stop
         style="stop-color:#b3b3b3;stop-opacity:0.99607843;"
         offset="0"
         id="stop193" />
      <stop
         style="stop-color:#b3b3b3;stop-opacity:0;"
         offset="1"
         id="stop194" />
    </linearGradient>
    <inkscape:path-effect
       effect="offset"
       id="path-effect193"
       is_visible="true"
       lpeversion="1.2"
       linejoin_type="miter"
       unit="mm"
       offset="-1.0415869"
       miter_limit="4"
       attempt_force_join="false"
       update_on_knot_move="true" />
    <inkscape:path-effect
       effect="offset"
       id="path-effect115"
       is_visible="true"
       lpeversion="1.2"
       linejoin_type="miter"
       unit="mm"
       offset="-1.0415869"
       miter_limit="4"
       attempt_force_join="false"
       update_on_knot_move="true" />
    <linearGradient
       id="linearGradient112"
       inkscape:collect="always">
      <stop
         style="stop-color:#b3b3b3;stop-opacity:0.995349;"
         offset="0"
         id="stop112" />
      <stop
         style="stop-color:#b3b3b3;stop-opacity:0;"
         offset="1"
         id="stop113" />
    </linearGradient>
    <inkscape:path-effect
       effect="offset"
       id="path-effect110"
       is_visible="true"
       lpeversion="1.2"
       linejoin_type="miter"
       unit="mm"
       offset="-0.98134448"
       miter_limit="4"
       attempt_force_join="false"
       update_on_knot_move="true" />
    <inkscape:path-effect
       effect="perspective-envelope"
       up_left_point="361.41893,127.772"
       up_right_point="843.69852,127.772"
       down_left_point="339.07134,313.70451"
       down_right_point="867.91407,313.70451"
       id="path-effect2"
       is_visible="true"
       lpeversion="1"
       deform_type="perspective"
       horizontal_mirror="false"
       vertical_mirror="false"
       overflow_perspective="false" />
    <inkscape:path-effect
       effect="envelope"
       id="path-effect1"
       is_visible="true"
       lpeversion="1"
       yy="true"
       xx="false"
       bendpath1="m 361.44629,151.5253 c 160.5567,-32.56604 321.09008,-35.29354 481.59375,0"
       bendpath2="m 843.04004,151.5253 v 168"
       bendpath3="m 361.44629,319.5253 c 160.55539,-30.89767 321.09379,-40.04562 481.59375,0"
       bendpath4="m 361.44629,151.5253 v 168"
       bendpath1-nodetypes="cc"
       bendpath3-nodetypes="cc" />
    <rect
       x="224.78049"
       y="144"
       width="752.4878"
       height="300.29269"
       id="rect2" />
    <rect
       x="221.26829"
       y="170.34146"
       width="422.34146"
       height="152.78049"
       id="rect1" />
    <rect
       x="224.78049"
       y="144"
       width="752.4878"
       height="300.29269"
       id="rect3" />
    <rect
       x="224.78049"
       y="144"
       width="752.4878"
       height="300.29269"
       id="rect4" />
    <linearGradient
       inkscape:collect="always"
       xlink:href="#linearGradient112"
       id="linearGradient113"
       x1="500.72153"
       y1="214.49358"
       x2="502.40601"
       y2="338.56952"
       gradientUnits="userSpaceOnUse"
       gradientTransform="matrix(1.2271522,0,0,1.2271522,-101.32311,-20.12263)" />
    <linearGradient
       inkscape:collect="always"
       xlink:href="#linearGradient193"
       id="linearGradient194"
       x1="554.3172"
       y1="132.84192"
       x2="554.3172"
       y2="56.890701"
       gradientUnits="userSpaceOnUse"
       gradientTransform="matrix(1.8208593,-0.00973139,0.00973139,1.8208593,-491.05621,11.466561)" />
  </defs>
  <g
     inkscape:label="Layer 1"
     inkscape:groupmode="layer"
     id="layer1"
     sodipodi:insensitive="true"
     style="display:none">
    <text
       xml:space="preserve"
       id="text2"
       style="font-style:normal;font-variant:normal;font-weight:600;font-stretch:normal;font-size:192px;font-family:'Inter 18pt';-inkscape-font-specification:'Inter 18pt Semi-Bold';text-align:center;white-space:pre;shape-inside:url(#rect2);display:inline;fill:#1a1a1a;fill-opacity:0.995349;stroke:#000000;stroke-width:0;stroke-linecap:square;stroke-linejoin:round;stroke-opacity:0.562753;paint-order:markers stroke fill"
       transform="translate(-101.35254,2.3169542)"
       x="618.9375"
       y="0"><tspan
         x="295.82129"
         y="321.72397"
         id="tspan2">Github</tspan></text>
  </g>
  <g
     inkscape:label="Layer 1"
     inkscape:groupmode="layer"
     id="g3"
     style="display:inline">
    <g
       id="g194"
       transform="translate(1.7593587,-16.787034)">
      <path
         style="color:#000000;-inkscape-font-specification:Anton;display:inline;fill:#00ffff;stroke-width:1.46298;stroke-linecap:square;stroke-linejoin:round;-inkscape-stroke:none;paint-order:markers stroke fill"
         d="m 505.87133,79.098085 -9.06368,0.01438 a 29.26268,29.26268 0 0 0 -0.37716,0.003 l -43.46674,0.628628 a 29.26268,29.26268 0 0 0 -7.61783,2.128642 29.26268,29.26268 0 0 0 -8.41217,-1.660148 l -115.74746,6.897759 a 29.26268,29.26268 0 0 0 -6.65202,2.068754 29.26268,29.26268 0 0 0 -6.99206,-0.854361 l -51.26172,5.346191 a 29.26268,29.26268 0 0 0 -23.5821,18.83026 29.26268,29.26268 0 0 0 -7.39495,-4.08894 c -30.54022,-10.948381 -56.84142,-4.8918 -57.93947,-4.63185 -42.14347,10.48736 -67.98841,37.62827 -80.615755,61.13973 -12.702544,23.65153 -14.329842,45.97554 -14.329842,45.97554 l 0.128561,-1.343 -13.609783,114.27307 a 29.26268,29.26268 0 0 0 -0.09138,0.86579 c -2.548366,28.62672 -2.59146,46.761 1.665855,62.87133 2.105453,7.96732 5.429825,16.50013 14.004128,23.85927 2.824099,3.06061 5.778249,5.86238 8.932213,8.52362 11.529546,9.72821 25.407363,18.14204 40.206443,24.59646 14.7991,6.45444 29.39641,12.30403 49.16155,8.96366 12.87352,-2.17561 25.09043,-7.0215 35.92032,-13.95836 a 29.26268,29.26268 0 0 0 16.80151,3.21455 c 7.02917,-1.04493 14.0491,-2.06073 21.06473,-3.04314 a 29.26268,29.26268 0 0 0 9.24369,-3.5403 29.26268,29.26268 0 0 0 8.78364,1.08297 l 51.21315,-6.20343 a 29.26268,29.26268 0 0 0 20.76757,-13.32976 29.26268,29.26268 0 0 0 22.04482,9.07224 c 17.36287,-1.54916 34.71015,-2.878 52.03893,-3.96606 a 29.26268,29.26268 0 0 0 22.31911,-13.40694 29.26268,29.26268 0 0 0 22.9735,11.11531 c 14.23449,-0.54556 28.46349,-0.92605 42.68666,-1.12582 l 8.96365,-0.1 a 29.26268,29.26268 0 0 0 12.14396,-3.37458 29.26268,29.26268 0 0 0 11.77248,3.33743 l 52.06462,1.14869 a 29.26268,29.26268 0 0 0 25.31941,-13.40976 c 15.9916,12.50174 36.27368,19.14381 57.8223,21.12473 21.57133,1.98304 43.26809,-0.9211 60.25396,-12.31539 a 29.26268,29.26268 0 0 0 22.12769,19.84464 l 72.16927,12.50968 -0.70576,-0.12856 c 18.95489,3.76789 38.23482,4.44668 55.68497,-6.39772 1.98948,-1.06042 17.53563,-9.45915 36.08894,-26.05947 a 29.26268,29.26268 0 0 0 1.60299,-1.54585 c 0,0 16.22988,-15.2754 22.85347,-40.29788 a 29.26268,29.26268 0 0 0 0.41148,-1.78015 c 0,0 4.83446,-24.68308 -0.0145,-55.93072 l 0.2143,1.70302 c 0,0 -1.83192,-26.59867 -14.58417,-52.71042 a 29.26268,29.26268 0 0 0 -6.23483,-8.46362 l -1.8716,-1.76014 -4.89185,5.50047 a 29.26268,29.26268 0 0 0 6.16054,-11.02955 c 0,0 5.46347,-17.12941 4.18608,-38.20625 a 29.26268,29.26268 0 0 0 -0.24572,-2.40594 l -1.61158,-11.17814 a 29.26268,29.26268 0 0 0 -0.30289,-1.7373 c -6.78825,-32.89694 -22.7031,-54.70936 -24.92507,-57.65087 -5.87412,-9.69177 -12.78868,-13.4345 -18.66739,-16.75004 -6.80536,-3.83817 -13.4228,-6.45425 -19.59602,-8.64078 -12.34646,-4.37303 -23.42212,-6.84631 -23.42212,-6.84631 a 29.26268,29.26268 0 0 0 -2.25732,-0.4229 l -72.1604,-10.535149 a 29.26268,29.26268 0 0 0 -11.66676,0.811499 29.26268,29.26268 0 0 0 -9.94948,-3.437448 l -51.5189,-5.274833 A 29.26268,29.26268 0 0 0 670.2604,89.024843 29.26268,29.26268 0 0 0 656.85349,84.787322 L 605.46033,81.578354 A 29.26268,29.26268 0 0 0 594.43649,83.575673 29.26268,29.26268 0 0 0 584.127,80.638268 L 531.59088,79.27529 a 29.26268,29.26268 0 0 0 -13.31548,3.125994 29.26268,29.26268 0 0 0 -12.40396,-3.303153 z m -93.39119,61.194025 1.62586,15.56137 -0.32004,13.45836 c -0.738,0.0362 -1.47646,0.0572 -2.21446,0.0943 a 29.26268,29.26268 0 0 0 -27.78248,28.59398 l -3.61463,168.47501 c -2.27072,0.17335 -4.54147,0.3392 -6.81204,0.52007 l -0.0342,-0.0657 6.28914,-162.9717 a 29.26268,29.26268 0 0 0 -13.51265,-25.74802 v 10.48095 l -6.10341,0.34289 -2.82881,-8.2036 a 29.26268,29.26268 0 0 0 4.24036,-4.97757 29.26268,29.26268 0 0 0 -6.60629,-1.88301 l -2.45738,-7.12066 a 29.26268,29.26268 0 0 0 -5.25761,-7.55494 29.26268,29.26268 0 0 0 3.11457,-8.91507 l 0.22288,-3.76037 15.31565,14.0784 a 29.26268,29.26268 0 0 0 -6.05767,-17.25866 z m 214.94488,2.6831 9.09224,154.69666 a 29.26268,29.26268 0 0 0 0.15422,1.743 l 1.54586,12.97831 a 29.26268,29.26268 0 0 0 0.43434,1.66585 29.26268,29.26268 0 0 0 -7.44638,6.8749 c -2.38361,-56.41278 -4.57068,-110.66912 -6.57202,-162.91166 z m 74.01805,4.65471 3.91462,0.40289 1.32585,15.34707 a 29.26268,29.26268 0 0 0 55.75067,9.67516 l 7.82642,-17.07296 49.05296,7.1635 c 1.18544,0.28131 8.21788,1.96907 16.01,4.72898 4.19767,1.4868 8.2536,3.26948 10.2952,4.41185 -0.66591,-0.81748 -1.56123,-2.13829 -2.87169,-4.97762 a 29.26268,29.26268 0 0 0 3.57746,5.83768 c 0,0 0.0163,0.0285 0.0163,0.0285 0.0311,0.0392 9.73642,12.40865 14.28985,34.02875 l 1.16296,8.0693 c 0.19875,4.46188 -0.23535,8.66215 -0.76579,11.8982 l -8.9008,10.00946 a 29.26268,29.26268 0 0 0 1.80875,40.74649 l 17.90728,16.85578 c 5.07349,12.64539 7.34639,28.52827 7.34639,28.52827 a 29.26268,29.26268 0 0 0 0.2143,1.70301 c 3.1456,20.27152 0.83043,33.05841 0.56005,34.48878 -1.77074,5.53561 -7.22386,12.71294 -7.83783,13.50691 -14.0426,12.33124 -23.96501,17.4273 -23.96501,17.4273 a 29.26268,29.26268 0 0 0 -2.73737,1.60014 c 1.45296,-0.95792 0.0198,-0.28326 -4.37182,-0.36004 12.53306,-10.51484 15.05958,-27.11067 13.88981,-38.28056 a 29.26268,29.26268 0 0 0 -47.27279,-19.88463 l -18.6274,14.7613 a 29.26268,29.26268 0 0 0 -9.54369,14.00985 l -4.31467,-47.78999 a 29.26268,29.26268 0 0 0 -56.89651,-5.31762 29.26268,29.26268 0 0 0 -11.86963,8.78364 c -3.4575,-52.95159 -6.93732,-104.12843 -10.44379,-153.468 z m -411.18241,1.33439 2.98312,8.93792 a 29.26268,29.26268 0 0 0 5.33764,7.82642 29.26268,29.26268 0 0 0 -3.10885,9.06081 l -11.02099,201.12366 -11.49817,1.39156 -6.74059,-7.70639 a 29.26268,29.26268 0 0 0 -42.02092,-0.88867 c 1.55267,-5.38602 2.54641,-10.87151 3.06885,-16.47003 a 29.26268,29.26268 0 0 0 -57.31082,-10.23234 29.26268,29.26268 0 0 0 -24.6422,18.50451 29.26268,29.26268 0 0 0 -22.67631,-16.57004 c -2.27966,-0.27022 -4.21231,-0.27202 -6.34343,-0.45434 0.18402,-4.1459 0.3962,-8.40941 0.83724,-13.4012 l 13.52978,-113.61299 a 29.26268,29.26268 0 0 0 0.12854,-1.34297 c 0,0 0.70544,-9.83768 7.51781,-22.52201 6.8124,-12.68433 17.46678,-25.83535 43.60103,-32.18572 a 29.26268,29.26268 0 0 0 1.1144,-0.29148 c 0,0 3.84828,-1.51872 13.87265,0.86008 l 10.67239,16.17573 10.10091,19.68177 a 29.26268,29.26268 0 0 0 5.7605,7.74354 c -0.0198,-0.0189 0.82165,0.59356 1.70304,4.42612 a 29.26268,29.26268 0 0 0 7.4292,13.24974 29.26268,29.26268 0 0 0 -10.28947,7.36636 29.26268,29.26268 0 0 0 -4.30038,-11.06668 L 210.845,208.17531 a 29.26268,29.26268 0 0 0 -52.04751,7.75784 l -3.68319,11.70675 a 29.26268,29.26268 0 0 0 -1.20296,5.85768 c -0.009,0.1005 -0.0128,0.13037 -0.001,0.0457 a 29.26268,29.26268 0 0 0 33.27726,32.08857 l 10.82952,-1.56585 a 29.26268,29.26268 0 0 0 17.61301,-9.90374 29.26268,29.26268 0 0 0 2.7088,9.16654 l 6.10626,10.33235 a 29.26268,29.26268 0 0 0 54.37628,-12.80687 l 0.80579,-11.30387 a 29.26268,29.26268 0 0 0 -9.96376,-24.01069 29.26268,29.26268 0 0 0 13.1669,-21.00188 l 3.92893,-55.20778 z m 63.0399,40.07215 0.52863,0.3429 -0.54861,0.0314 z m 128.45148,22.01909 a 29.26268,29.26268 0 0 0 24.23644,13.60981 l 22.62774,0.0686 a 29.26268,29.26268 0 0 0 20.78755,-8.59507 c 0.45474,14.05351 0.97731,28.69997 1.46588,43.0467 a 29.26268,29.26268 0 0 0 -20.79043,-10.27234 c -7.79696,-0.0654 -15.56832,-0.069 -23.31638,-0.0314 a 29.26268,29.26268 0 0 0 -25.47656,15.39851 z m -295.80927,3.53177 20.82187,20.07894 -31.69711,4.72326 z m 621.70119,15.48995 a 29.26268,29.26268 0 0 0 -9.12367,2.12019 l -8.52648,3.49745 a 29.26268,29.26268 0 0 0 6.1177,55.90212 c 5.61665,0.97109 12.81436,1.64981 21.75337,-2.00874 8.939,-3.65855 17.28313,-13.56412 19.7875,-21.92482 a 29.26268,29.26268 0 0 0 -30.00842,-37.5862 z m -4.79757,3.61176 c 1.72376,-0.0812 2.79657,0.16952 3.23744,0.24572 l 4.7547,43.44102 -29.2426,-26.50238 c 1.558,-5.20133 8.00516,-12.94922 14.10127,-15.44422 3.04803,-1.2475 5.42545,-1.65908 7.14919,-1.74014 z m -540.57393,13.15545 -12.38111,25.52513 -19.19886,-18.08732 z m 437.91049,82.43591 0.84007,0.0713 a 29.26268,29.26268 0 0 0 -1.19725,6.02626 29.26268,29.26268 0 0 0 -0.65719,-2.03733 z m 5.38334,0.46292 7.36066,0.63433 -3.86319,16.63578 -7.775,-7.12351 a 29.26268,29.26268 0 0 0 -0.26858,-0.83149 29.26268,29.26268 0 0 0 4.54611,-9.31511 z m -55.93356,8.74363 a 29.26268,29.26268 0 0 0 6.42628,5.22047 l -8.73792,1.73156 z m 162.87453,4.03178 6.58059,26.37665 -22.34485,-9.40084 c 0.10783,1.02901 0.23648,-7.4806 7.31207,-13.04975 4.22325,-3.32406 7.16757,-3.86953 8.45219,-3.92606 z m -643.93746,6.86632 c -0.20467,1.19125 -0.35216,2.27473 -0.55147,2.97171 a 29.26268,29.26268 0 0 0 -3.23171,4.10036 l -0.5029,-5.7148 z m 42.39807,0.41433 -0.36574,4.15465 -11.40959,-1.96016 a 29.26268,29.26268 0 0 0 -2.87168,-1.86303 z m -19.56745,0.44577 c 0.23536,0.17736 0.47409,0.34351 0.70291,0.53146 l -2.8174,-0.48576 z m 512.76575,1.12008 a 29.26268,29.26268 0 0 0 0.79721,2.14591 l -1.46299,1.95731 a 29.26268,29.26268 0 0 0 0.66578,-4.10322 z m -206.31555,9.53802 c -5.81057,0.0816 -11.60939,0.32152 -17.41585,0.46002 l 10e-4,-0.26574 z m -19.06742,0.21143 10e-4,0.29146 c -0.24387,0.005 -0.48764,0.0129 -0.73149,0.02 v -0.30289 z m 302.54413,21.43048 a 29.26268,29.26268 0 0 0 2.0716,3.52889 v 20.7647 a 29.26268,29.26268 0 0 0 -0.11721,-2.63165 z m -635.31096,1.41727 c 1.50848,3.01525 3.53725,5.96578 6.00625,8.69505 -1.63214,-0.51761 -3.2729,-1.01219 -4.97473,-1.75442 -1.13497,-0.49502 -2.27265,-1.24974 -3.42887,-1.80875 0.001,-10e-4 0.0657,-0.0943 0.0657,-0.0943 a 29.26268,29.26268 0 0 0 2.33165,-5.0376 z m 332.03819,1.49727 0.12569,0.12287 -0.11142,3.55459 a 29.26268,29.26268 0 0 0 -0.0145,0.92009 z m -310.68201,0.44576 a 29.26268,29.26268 0 0 0 1.543,2.87454 l -1.19153,1.10582 z"
         id="path108" />
      <path
         style="color:#000000;-inkscape-font-specification:Anton;display:inline;fill:#00ffff;stroke-width:1.46298;stroke-linecap:square;stroke-linejoin:round;-inkscape-stroke:none;paint-order:markers stroke fill"
         d="m 505.91705,108.35783 -9.06367,0.0144 -43.46673,0.62863 -2.25735,257.45441 v 0.001 l 3.73747,24.8422 v 10e-4 c 14.46177,-0.55424 28.92638,-0.93974 43.39529,-1.14295 h 10e-4 l 9.04938,-0.1 v -10e-4 l 0.78576,-24.95083 -1.19438,-86.96489 c 7.64163,-0.0371 15.28263,-0.0327 22.92776,0.0314 0.63189,36.35068 1.41883,73.62281 2.36594,111.85284 l 52.15034,1.15155 c 0.11798,0.005 0.23621,0.008 0.35432,0.0128 v -0.001 l 7.46353,-24.85366 -8.80078,-256.44574 -52.53611,-1.36299 -2.59167,45.3269 0.46577,41.62373 -22.62773,-0.0686 z m -67.24316,1.06296 -115.74746,6.89777 -1.92874,32.31716 -10.42094,-31.2085 -51.2617,5.34619 -5.67194,79.68713 c -1.8296,-7.95589 -5.11037,-14.32158 -9.94947,-18.97028 l -10.82951,-21.10189 -17.43585,-26.43378 c -24.0708,-8.62916 -40.43503,-3.96322 -40.43503,-3.96322 -68.72474,16.69947 -73.39227,81.02152 -73.39227,81.02152 L 87.991193,327.28592 c -9.634291,108.22542 31.197077,45.71267 31.197077,45.71267 -76.199803,-9.03128 14.96073,57.36699 48.75293,51.65603 16.71247,-2.8244 30.12661,-10.61251 40.30358,-23.28778 l 12.98974,12.45254 c 7.10682,-1.05647 14.20935,-2.08306 21.31046,-3.07743 0.54327,-7.52681 1.09846,-14.426 1.643,-21.88196 l 16.92437,19.35317 51.21314,-6.20343 12.36396,-225.62013 9.58085,27.77394 c 5.36935,-0.48314 10.74013,-0.89418 16.11002,-1.33442 l -6.58345,170.5295 12.2611,24.29359 -0.001,10e-4 c 17.60701,-1.57093 35.20893,-2.9184 52.8047,-4.02322 l 4.18324,-195.00311 c 9.77802,-0.49212 19.55784,-0.91011 29.33976,-1.25441 l 1.0201,-42.69807 z m 164.96332,1.36013 -8.37221,45.14686 c 2.06998,54.14966 4.33936,110.474 6.82062,169.10653 0.94964,22.43782 6.87212,39.92576 17.76731,52.41897 10.99712,12.51878 27.50809,19.52393 49.58444,21.55335 22.09899,2.03154 37.93176,-2.01007 47.53565,-12.67256 1.33796,-1.50005 2.53669,-3.1515 3.65176,-4.88902 l 15.2185,-20.38467 10.19806,-43.93533 8.09785,89.71369 v 0.001 l 72.1693,12.51253 c 15.68862,3.11861 27.41855,2.25462 35.22029,-2.88883 0,0 14.08164,-7.23181 31.33993,-22.67345 0,0 11.59391,-12.08368 15.68139,-27.52531 0,0 3.85605,-19.39677 -0.23144,-45.73836 0,0 -2.20927,-23.12326 -11.74676,-42.65238 L 873.99275,256.6206 887.9997,240.86778 c 0,0 3.91432,-13.0379 3.00599,-28.02537 l -1.61157,-11.17812 c -5.90415,-28.6119 -20.07892,-46.61791 -20.07892,-46.61791 -5.45,-11.80832 -44.35826,-20.65042 -44.35826,-20.65042 l -72.16073,-10.53522 -16.96151,37.00043 -3.40888,-39.47208 -51.51886,-5.27476 -14.50988,44.72399 c 3.68943,51.72961 7.34997,105.66097 10.98669,161.42299 l -5.8205,-2.92029 -4.29181,-10.40949 -1.54586,-12.9783 -10.69524,-181.9648 z m -27.03671,44.32395 h 10e-4 l 7.24064,211.04168 h -0.0542 c -2.77746,-73.6637 -5.20576,-144.28863 -7.18922,-211.04168 z m -239.54708,5.90909 c -0.0694,0.005 -0.13911,0.009 -0.2086,0.0145 v -0.001 z m -150.34485,63.69998 7.12064,10.39235 -10.82955,1.56586 c 0.009,-0.0816 0.0182,-0.1699 0.0258,-0.25145 z m 63.73139,22.75631 -0.80577,11.30386 -6.10627,-10.33236 c 2.30424,-0.31024 4.6078,-0.66862 6.91204,-0.9715 z m 559.18419,11.79819 c -0.94636,3.15936 -3.79158,4.31608 -8.52647,3.49747 z m -81.1244,76.28393 0.0713,0.81152 -10e-4,0.0128 c -3.2e-4,-0.005 3.1e-4,-0.008 0,-0.0128 -0.022,-0.27578 -0.0466,-0.53581 -0.0686,-0.81152 z m -74.65523,2.79455 3.95179,9.58087 8.83793,4.4318 8.5522,-2.72594 v 0.001 c -1.63626,2.18993 -4.48637,3.08979 -8.5522,2.72312 -3.96579,-0.35765 -6.91361,-1.82855 -8.84081,-4.43181 -1.92341,-2.59822 -3.23893,-5.79082 -3.94891,-9.58087 z m -455.71778,11.17529 c -0.65212,6.98781 -2.11728,12.80355 -4.40327,17.44155 -0.6336,1.31657 -1.45163,2.43324 -2.36877,3.44316 l -1.04011,-1.04578 3.40888,-2.39738 z m 627.71599,6.92347 c 1.30427,12.4539 -4.93833,17.26752 -18.62736,14.76131 z m -653.93834,14.06982 8.84936,3.99464 -1.10009,0.7515 c -3.91027,0.0533 -6.54802,-1.45795 -7.74927,-4.74614 z"
         id="path109" />
      <path
         style="color:#000000;-inkscape-font-specification:Anton;display:inline;fill:#000000;stroke-width:1.46298;stroke-linecap:square;stroke-linejoin:round;-inkscape-stroke:none;paint-order:markers stroke fill"
         d="m 505.88277,86.413023 -9.06368,0.01438 a 21.94701,21.94701 0 0 0 -0.28289,0.003 l -43.46672,0.628627 a 21.94701,21.94701 0 0 0 -7.45781,2.083044 21.94701,21.94701 0 0 0 -8.24359,-1.625859 L 321.6206,94.413929 a 21.94701,21.94701 0 0 0 -6.34341,2.851683 21.94701,21.94701 0 0 0 -6.97779,-1.665863 l -51.2617,5.346191 a 21.94701,21.94701 0 0 0 -19.61317,20.27039 l -0.52862,7.42922 -3.14887,-4.77471 a 21.94701,21.94701 0 0 0 -10.91238,-8.5722 c -28.90968,-10.36383 -52.75485,-4.66492 -53.56765,-4.4661 -40.18773,9.95023 -64.1656,35.37259 -76.075341,57.54798 -11.96629,22.2806 -13.478368,43.04384 -13.478368,43.04384 l 0.09729,-1.00581 -13.609796,114.27306 a 21.94701,21.94701 0 0 0 -0.06863,0.64862 c -2.513408,28.23412 -2.359708,45.93156 1.45157,60.35395 1.905626,7.21121 4.82149,14.42189 11.892493,20.38755 0.06863,0.058 0.162054,0.0857 0.23143,0.14275 2.627293,2.87337 5.414518,5.56141 8.457914,8.12931 10.833302,9.14075 24.288618,17.32396 38.414838,23.48496 14.12625,6.16097 28.08247,11.31722 45.01832,8.455 13.42122,-2.26816 25.74123,-7.74801 36.50612,-15.40993 a 21.94701,21.94701 0 0 0 16.35573,4.64328 c 7.04858,-1.04782 14.0906,-2.06631 21.1276,-3.0517 a 21.94701,21.94701 0 0 0 7.49496,-3.89464 21.94701,21.94701 0 0 0 10.66952,1.41727 l 51.21315,-6.2034 a 21.94701,21.94701 0 0 0 19.27027,-20.5847 l 0.42291,-7.73211 a 21.94701,21.94701 0 0 0 23.34495,24.03644 c 17.4239,-1.55461 34.83486,-2.88813 52.23036,-3.98037 a 21.94701,21.94701 0 0 0 20.56469,-21.43049 l 0.28573,-13.3612 1.83732,12.20112 v -1.64017 a 21.94701,21.94701 0 0 0 22.7849,21.92766 c 14.25511,-0.5463 28.5068,-0.92477 42.75523,-1.12582 0.0145,-1.9e-4 0.0305,2.5e-4 0.0458,0 l 9.04938,-0.1 a 21.94701,21.94701 0 0 0 12.20965,-4.38038 21.94701,21.94701 0 0 0 11.94679,4.3404 l 51.95033,1.1458 c 0.10693,10e-4 0.26574,0.009 0.22576,0.009 a 21.94701,21.94701 0 0 0 21.8848,-18.75024 c 15.42394,15.97916 37.24302,24.24687 61.65408,26.49093 24.8963,2.28869 48.48077,-2.1402 64.28573,-18.35594 l 0.48004,5.32334 v -0.98579 a 21.94701,21.94701 0 0 0 18.1959,21.62192 l 72.16931,12.51255 -0.52862,-0.0972 c 18.12077,3.60207 35.53286,3.91432 50.61595,-5.54908 1.57836,-0.83582 16.6808,-8.92438 34.85454,-25.18508 a 21.94701,21.94701 0 0 0 1.20295,-1.16009 c 0,0 15.06947,-14.47608 21.05903,-37.10332 a 21.94701,21.94701 0 0 0 0.31144,-1.33726 c 0,0 4.58702,-23.3608 -0.0713,-53.38191 l 0.16004,1.28012 c 0,0 -1.92409,-25.72984 -13.87264,-50.19593 a 21.94701,21.94701 0 0 0 -4.67756,-6.34913 l -7.04636,-6.63488 -0.16862,0.1886 a 21.94701,21.94701 0 0 0 4.62041,-8.27218 c 0,0 5.0769,-16.10869 3.89178,-35.66317 a 21.94701,21.94701 0 0 0 -0.18573,-1.80302 l -1.61158,-11.17815 a 21.94701,21.94701 0 0 0 -0.22573,-1.30295 c -6.616,-32.06138 -22.30865,-53.05846 -23.80228,-55.01062 -4.83579,-8.02337 -10.81719,-11.44921 -16.2186,-14.49555 -6.20753,-3.501 -12.51639,-6.01431 -18.44733,-8.11501 -11.86193,-4.20142 -22.59917,-6.61202 -22.59917,-6.61202 a 21.94701,21.94701 0 0 0 -1.69444,-0.3143 L 755.9652,102.14922 a 21.94701,21.94701 0 0 0 -11.60389,2.06875 21.94701,21.94701 0 0 0 -9.70088,-4.657557 L 683.14148,94.285698 A 21.94701,21.94701 0 0 0 668.91163,97.751721 21.94701,21.94701 0 0 0 656.3991,92.088359 L 605.00594,88.8795 a 21.94701,21.94701 0 0 0 -9.63516,2.980267 21.94701,21.94701 0 0 0 -11.43528,-3.908919 l -52.53615,-1.363679 a 21.94701,21.94701 0 0 0 -12.87257,4.411821 21.94701,21.94701 0 0 0 -12.64396,-4.586123 z m -21.87053,44.092497 0.12004,64.94008 a 21.94701,21.94701 0 0 0 21.87909,21.90482 l 22.62773,0.0686 a 21.94701,21.94701 0 0 0 22.01054,-22.19054 l -0.46004,-40.87221 1.33723,-23.3421 10.61812,0.27432 0.28001,8.16929 a 21.94701,21.94701 0 0 0 -6.40627,17.613 l -1.35441,-1.31439 c 1.98558,66.82517 4.4157,137.50586 7.19492,211.21596 a 21.94701,21.94701 0 0 0 0.53434,1.77159 l -8.69792,-0.19428 c -0.71994,-30.73116 -1.40751,-61.26447 -1.92016,-90.75668 a 21.94701,21.94701 0 0 0 -21.75909,-21.56485 c -7.75898,-0.0652 -15.49491,-0.069 -23.21635,-0.0314 a 21.94701,21.94701 0 0 0 -21.83624,22.24484 l 1.18584,86.47057 -0.10873,3.43746 11.91246,-0.13129 c -3.97571,0.0559 -7.94408,0.23157 -11.91818,0.3143 l -0.65436,20.83329 a 21.94701,21.94701 0 0 0 -0.0129,0.69148 V 368.5496 c -3.89681,0.0825 -7.79141,0.20072 -11.68675,0.3086 l -0.59433,-3.94605 2.05446,-234.27808 z m -64.98293,2.06878 2.4002,22.98489 -0.49719,20.76754 c -2.99718,0.13711 -5.99536,0.23495 -8.99222,0.38577 a 21.94701,21.94701 0 0 0 -20.83615,21.44478 l -3.75747,175.10703 c -6.10437,0.44575 -12.20941,0.8936 -18.31306,1.39442 l -3.08887,-6.1234 6.36344,-164.86043 A 21.94701,21.94701 0 0 0 356.438,181.90438 l -6.50629,0.36576 -0.44004,-1.27724 a 21.94701,21.94701 0 0 0 -0.9058,-0.0342 c -0.70849,0.0581 -1.46677,0.12236 -2.1802,0.18009 l 0.0799,-1.46585 a 21.94701,21.94701 0 0 0 2.22304,-0.9401 l -3.27457,-9.49798 a 21.94701,21.94701 0 0 0 -7.04348,-8.7665 21.94701,21.94701 0 0 0 4.51182,-10.52378 l 0.20002,-3.33745 14.7099,13.52405 a 21.94701,21.94701 0 0 0 -14.3841,-19.00457 l 0.24286,-4.06036 z m 202.64092,1.3201 12.59256,0.78579 9.55514,162.56305 a 21.94701,21.94701 0 0 0 0.11721,1.30584 l 1.54585,12.9783 a 21.94701,21.94701 0 0 0 1.50298,5.7691 l 0.36005,0.87435 a 21.94701,21.94701 0 0 0 -15.44424,20.17609 21.94701,21.94701 0 0 0 0.37432,4.04037 c 0.88413,4.71968 2.7611,9.37813 5.20045,13.82409 l 0.0342,0.0829 a 21.94701,21.94701 0 0 0 0.0314,0.0342 c 0.86248,1.56017 1.53178,3.195 2.61454,4.65757 5.94248,8.02719 16.15034,12.47601 24.50789,13.22976 0.0505,0.005 0.11785,-0.008 0.16862,-10e-4 a 21.94701,21.94701 0 0 0 0.3686,-0.005 c 8.1881,0.59618 20.48292,-1.95652 27.56532,-11.43531 a 21.94701,21.94701 0 0 0 4.36612,-13.13547 v -10e-4 a 21.94701,21.94701 0 0 0 -4.04607,-12.48683 21.94701,21.94701 0 0 0 6.19768,-16.31288 C 695.74036,266.52163 692.17243,214.0963 688.57898,163.57784 l 7.72926,-23.82213 15.8157,1.62015 1.84586,21.37905 a 21.94701,21.94701 0 0 0 41.81232,7.25493 l 10.11234,-22.0534 54.80775,8.00073 c 0.89043,0.20872 8.60739,2.03073 17.06437,5.02614 4.47736,1.58586 8.9176,3.49678 11.53817,4.97474 2.62058,1.47797 2.44987,3.41076 0.0857,-1.71158 a 21.94701,21.94701 0 0 0 2.68311,4.3804 c 0,0 10.85219,13.80375 15.74997,37.21189 l 1.27441,8.82365 c 0.34914,6.92201 -0.53947,12.31226 -1.29155,15.8957 l -10.21233,11.48673 a 21.94701,21.94701 0 0 0 1.35726,30.55986 l 19.08743,17.96732 c 6.09713,14.25375 8.43503,32.04572 8.43503,32.04572 a 21.94701,21.94701 0 0 0 0.16006,1.28011 c 3.38885,21.83938 0.68045,36.25971 0.4743,37.32906 -2.30524,7.8321 -9.24449,16.32516 -9.76944,16.95865 -14.88341,13.13904 -25.83658,18.76168 -25.83658,18.76168 a 21.94701,21.94701 0 0 0 -2.05162,1.20009 c -0.30552,0.20144 -5.98762,2.24539 -18.86453,-0.3143 a 21.94701,21.94701 0 0 0 -0.52862,-0.0973 l -53.97339,-9.35798 v 18.46451 a 21.94701,21.94701 0 0 0 -0.0884,-1.97161 l -8.09789,-89.71372 a 21.94701,21.94701 0 0 0 -43.23242,-2.98885 l -0.62864,2.70311 a 21.94701,21.94701 0 0 0 -16.18429,16.23288 l 12.17252,1.04867 -3.36603,14.50414 -10.01802,-9.17794 -0.0163,-0.18288 c 0.0388,0.48729 0.0634,0.74765 0.0686,0.81149 l -0.009,-0.12287 a 21.94701,21.94701 0 0 0 8.06642,14.64703 l -11.7096,15.68998 a 21.94701,21.94701 0 0 0 -0.88294,1.27439 c -0.65065,1.01386 -1.17274,1.686 -1.52013,2.08017 -3.43269,3.78917 -10.72891,7.17773 -29.19118,5.4805 -18.46452,-1.69739 -28.59112,-6.78879 -35.08027,-14.16126 -6.80183,-7.81763 -11.5495,-19.84479 -12.35538,-38.88635 -2.4446,-57.76585 -4.6758,-113.19209 -6.7206,-166.59771 z m -326.33197,7.18635 4.8433,14.50416 a 21.94701,21.94701 0 0 0 7.08062,8.98079 21.94701,21.94701 0 0 0 -4.48326,10.6238 l -11.35815,207.24709 -21.42763,2.59448 -9.28654,-10.61807 a 21.94701,21.94701 0 0 0 -37.66051,10.90668 21.94701,21.94701 0 0 0 -11.61531,-5.31761 c 0.69535,-1.08857 1.40002,-2.16923 2.01161,-3.42887 0.66181,-1.34868 0.97064,-2.80477 1.52012,-4.18609 a 21.94701,21.94701 0 0 0 0.0371,-0.0515 l 0.0371,-0.1515 c 2.57821,-6.55052 4.26342,-13.3672 4.94042,-20.62184 a 21.94701,21.94701 0 0 0 -43.12669,-7.41208 l -1.42587,5.64055 a 21.94701,21.94701 0 0 0 -24.13358,28.25396 c 2.00523,5.48901 6.44579,11.46116 12.1468,14.89561 5.70099,3.43448 11.66677,4.32947 16.51575,4.26325 a 21.94701,21.94701 0 0 0 0.93436,-0.29718 c -4.6394,2.96162 -9.9244,4.98022 -16.60432,6.10913 0.0397,-0.008 -10.0698,-1.00881 -20.15896,-5.40905 -3.83431,-1.67229 -7.6967,-3.86927 -11.4896,-6.03482 2.81233,-3.58057 4.92617,-6.57203 4.92617,-6.57203 a 21.94701,21.94701 0 0 0 -15.79,-33.79445 c -4.76036,-0.5642 -8.96762,-0.82979 -13.05542,-0.92578 0.11811,-6.01049 0.40203,-12.71716 1.12579,-20.89043 l 13.54979,-113.7816 a 21.94701,21.94701 0 0 0 0.0973,-1.0058 c 0,0 0.82067,-11.39846 8.36931,-25.45369 7.54868,-14.05525 20.12446,-28.98155 48.31574,-35.83177 a 21.94701,21.94701 0 0 0 0.83722,-0.22001 c 0,0 6.70106,-2.02135 20.56755,1.71729 l 12.30681,18.65878 10.28378,20.03896 a 21.94701,21.94701 0 0 0 4.32038,5.80336 c 1.19494,1.14793 2.64763,3.20018 3.76604,8.06359 a 21.94701,21.94701 0 0 0 43.27815,-3.36032 l 4.36328,-61.32832 z m -111.86428,61.93124 a 21.94701,21.94701 0 0 0 -17.69872,15.11564 l -3.68316,11.70677 a 21.94701,21.94701 0 0 0 -0.90295,4.39466 c -0.009,0.0958 -0.0129,0.14021 -0.009,0.0972 a 21.94701,21.94701 0 0 0 24.95939,24.06501 l 10.82951,-1.56585 a 21.94701,21.94701 0 0 0 14.96134,-34.12304 L 204.80976,212.31 a 21.94701,21.94701 0 0 0 -21.33619,-9.29798 z m 3.51462,18.81597 11.27529,10.86954 -17.16439,2.55735 z m 66.13445,3.86319 a 21.94701,21.94701 0 0 0 -5.54336,0.02 c -2.64816,0.34811 -4.97433,0.71283 -6.98058,0.98296 a 21.94701,21.94701 0 0 0 -15.96432,32.9115 l 6.10629,10.33234 a 21.94701,21.94701 0 0 0 40.78362,-9.6037 l 0.8058,-11.30387 a 21.94701,21.94701 0 0 0 -19.20745,-23.33924 z m 556.1925,11.63533 a 21.94701,21.94701 0 0 0 -8.02074,1.64015 l -8.52643,3.49744 a 21.94701,21.94701 0 0 0 4.59181,41.92661 c 4.80435,0.83065 10.67339,1.31779 17.73299,-1.57157 7.05966,-2.88934 13.5563,-10.58752 15.55284,-17.25296 a 21.94701,21.94701 0 0 0 -21.33047,-28.23967 z m -6.10626,3.69175 c 1.05596,-0.0502 1.59113,0.11696 1.62587,0.12287 l 3.22598,29.46548 -19.45888,-17.63584 c 1.05021,-3.5061 5.6499,-9.04659 9.8666,-10.77239 2.10836,-0.86293 3.68446,-1.13 4.74043,-1.18012 z m -547.23454,9.54656 -7.05206,14.54133 -10.93526,-10.30379 z m 570.79093,83.95896 a 21.94701,21.94701 0 0 0 -14.55273,4.72324 l -18.62739,14.76133 a 21.94701,21.94701 0 0 0 9.67803,38.78346 c 9.87388,1.80774 21.71301,2.3469 32.46002,-6.11197 10.747,-8.45888 13.00433,-22.39466 11.94393,-32.52004 a 21.94701,21.94701 0 0 0 -20.90186,-19.63602 z m -168.17787,1.05722 a 21.94701,21.94701 0 0 0 3.13457,3.37457 l 3.11169,1.56015 -9.16367,1.8173 1.93733,-5.83194 c 0.28679,-0.38383 0.66502,-0.58298 0.98008,-0.92008 z m 152.77934,14.84418 3.17742,12.73542 -10.23805,-4.30896 c 0.31374,-1.01767 1.12953,-4.18733 4.27181,-6.66058 1.10738,-0.87163 2.04321,-1.41101 2.78882,-1.76588 z m -636.45963,4.30039 c -0.045,0.14767 -0.0838,0.24278 -0.12856,0.38003 a 21.94701,21.94701 0 0 0 -5.41763,12.50111 l -0.95151,-10.82667 z m -4.79186,21.4619 a 21.94701,21.94701 0 0 0 2.7231,5.07759 l -2.10589,1.95447 z m 170.42092,5.9491 a 21.94701,21.94701 0 0 0 -5.75194,11.06385 l 0.3086,-5.61765 z"
         id="path106" />
      <path
         style="color:#000000;-inkscape-font-specification:Anton;display:inline;fill:#000000;stroke-width:1.46298;stroke-linecap:square;stroke-linejoin:round;-inkscape-stroke:none;paint-order:markers stroke fill"
         d="m 505.91705,108.35783 -9.06367,0.0144 -43.46673,0.62863 -2.25735,257.45441 v 0.001 l 3.73747,24.8422 v 10e-4 c 14.46177,-0.55424 28.92638,-0.93974 43.39529,-1.14295 h 10e-4 l 9.04938,-0.1 v -10e-4 l 0.78576,-24.95083 -1.19438,-86.96489 c 7.64163,-0.0371 15.28263,-0.0327 22.92776,0.0314 0.63189,36.35068 1.41883,73.62281 2.36594,111.85284 l 52.15034,1.15155 c 0.11798,0.005 0.23621,0.008 0.35432,0.0128 v -0.001 l 7.46353,-24.85366 -8.80078,-256.44574 -52.53611,-1.36299 -2.59167,45.3269 0.46577,41.62373 -22.62773,-0.0686 z m -67.24316,1.06296 -115.74746,6.89777 -1.92874,32.31716 -10.42094,-31.2085 -51.2617,5.34619 -5.67194,79.68713 c -1.8296,-7.95589 -5.11037,-14.32158 -9.94947,-18.97028 l -10.82951,-21.10189 -17.43585,-26.43378 c -24.0708,-8.62916 -40.43503,-3.96322 -40.43503,-3.96322 -68.72474,16.69947 -73.39227,81.02152 -73.39227,81.02152 L 87.991193,327.28592 c -9.634291,108.22542 31.197077,45.71267 31.197077,45.71267 -76.199803,-9.03128 14.96073,57.36699 48.75293,51.65603 16.71247,-2.8244 30.12661,-10.61251 40.30358,-23.28778 l 12.98974,12.45254 c 7.10682,-1.05647 14.20935,-2.08306 21.31046,-3.07743 0.54327,-7.52681 1.09846,-14.426 1.643,-21.88196 l 16.92437,19.35317 51.21314,-6.20343 12.36396,-225.62013 9.58085,27.77394 c 5.36935,-0.48314 10.74013,-0.89418 16.11002,-1.33442 l -6.58345,170.5295 12.2611,24.29359 -0.001,10e-4 c 17.60701,-1.57093 35.20893,-2.9184 52.8047,-4.02322 l 4.18324,-195.00311 c 9.77802,-0.49212 19.55784,-0.91011 29.33976,-1.25441 l 1.0201,-42.69807 z m 164.96332,1.36013 -8.37221,45.14686 c 2.06998,54.14966 4.33936,110.474 6.82062,169.10653 0.94964,22.43782 6.87212,39.92576 17.76731,52.41897 10.99712,12.51878 27.50809,19.52393 49.58444,21.55335 22.09899,2.03154 37.93176,-2.01007 47.53565,-12.67256 1.33796,-1.50005 2.53669,-3.1515 3.65176,-4.88902 l 15.2185,-20.38467 10.19806,-43.93533 8.09785,89.71369 v 0.001 l 72.1693,12.51253 c 15.68862,3.11861 27.41855,2.25462 35.22029,-2.88883 0,0 14.08164,-7.23181 31.33993,-22.67345 0,0 11.59391,-12.08368 15.68139,-27.52531 0,0 3.85605,-19.39677 -0.23144,-45.73836 0,0 -2.20927,-23.12326 -11.74676,-42.65238 L 873.99275,256.6206 887.9997,240.86778 c 0,0 3.91432,-13.0379 3.00599,-28.02537 l -1.61157,-11.17812 c -5.90415,-28.6119 -20.07892,-46.61791 -20.07892,-46.61791 -5.45,-11.80832 -44.35826,-20.65042 -44.35826,-20.65042 l -72.16073,-10.53522 -16.96151,37.00043 -3.40888,-39.47208 -51.51886,-5.27476 -14.50988,44.72399 c 3.68943,51.72961 7.34997,105.66097 10.98669,161.42299 l -5.8205,-2.92029 -4.29181,-10.40949 -1.54586,-12.9783 -10.69524,-181.9648 z m -27.03671,44.32395 h 10e-4 l 7.24064,211.04168 h -0.0542 c -2.77746,-73.6637 -5.20576,-144.28863 -7.18922,-211.04168 z m -239.54708,5.90909 c -0.0694,0.005 -0.13911,0.009 -0.2086,0.0145 v -0.001 z m -150.34485,63.69998 7.12064,10.39235 -10.82955,1.56586 c 0.009,-0.0816 0.0182,-0.1699 0.0258,-0.25145 z m 63.73139,22.75631 -0.80577,11.30386 -6.10627,-10.33236 c 2.30424,-0.31024 4.6078,-0.66862 6.91204,-0.9715 z m 559.18419,11.79819 c -0.94636,3.15936 -3.79158,4.31608 -8.52647,3.49747 z m -81.1244,76.28393 0.0713,0.81152 -10e-4,0.0128 c -3.2e-4,-0.005 3.1e-4,-0.008 0,-0.0128 -0.022,-0.27578 -0.0466,-0.53581 -0.0686,-0.81152 z m -74.65523,2.79455 3.95179,9.58087 8.83793,4.4318 8.5522,-2.72594 v 0.001 c -1.63626,2.18993 -4.48637,3.08979 -8.5522,2.72312 -3.96579,-0.35765 -6.91361,-1.82855 -8.84081,-4.43181 -1.92341,-2.59822 -3.23893,-5.79082 -3.94891,-9.58087 z m -455.71778,11.17529 c -0.65212,6.98781 -2.11728,12.80355 -4.40327,17.44155 -0.6336,1.31657 -1.45163,2.43324 -2.36877,3.44316 l -1.04011,-1.04578 3.40888,-2.39738 z m 627.71599,6.92347 c 1.30427,12.4539 -4.93833,17.26752 -18.62736,14.76131 z m -653.93834,14.06982 8.84936,3.99464 -1.10009,0.7515 c -3.91027,0.0533 -6.54802,-1.45795 -7.74927,-4.74614 z"
         id="path107" />
      <path
         d="m 139.45186,402.68855 c -41.739109,7.05402 -58.52955,-18.1284 -51.461361,-75.40361 4.816362,-39.02821 9.350437,-77.10718 13.612191,-114.2711 5.36808,-46.8113 29.5586,-74.2654 73.38977,-81.02126 17.95735,-2.76785 31.44713,-1.37094 40.43474,3.96201 9.0351,5.26372 14.84391,14.08458 17.43532,26.43369 2.61263,12.45032 3.17303,28.1103 1.68129,47.05983 -17.72762,2.28868 -35.45539,4.77943 -53.1803,7.46581 0.70891,-7.56762 1.4146,-15.09935 2.11704,-22.59539 0.51121,-5.45541 0.1185,-9.86498 -1.17631,-13.23457 -1.18066,-3.4717 -4.27094,-4.82961 -9.26947,-4.05525 -6.22529,0.96439 -10.55296,3.57503 -12.9832,7.80135 -2.33526,4.2228 -3.7402,8.68543 -4.21413,13.38539 -4.18604,41.51392 -8.54693,84.14497 -13.08979,127.93883 -0.7683,7.4062 -0.4346,13.31797 1.01153,17.72315 1.56878,4.29424 5.2648,5.95767 11.08674,5.00824 6.03447,-0.98409 10.24016,-3.93261 12.61374,-8.86465 2.48317,-5.0381 4.07572,-11.35634 4.78412,-18.94693 1.21008,-12.96676 2.41105,-25.83163 3.60306,-38.59577 -4.94864,0.76424 -9.89735,1.54287 -14.84609,2.33568 1.50759,-15.34828 2.99738,-30.5515 4.46959,-45.61171 22.29141,-3.52642 44.58822,-6.7521 66.88483,-9.66268 -3.98426,51.02421 -7.93896,103.67646 -11.86243,158.03589 -7.71366,1.08013 -15.43043,2.19454 -23.15022,3.34214 -0.11734,-0.33354 -7.7232,-22.04473 -7.83886,-22.3739 -11.5494,19.12494 -28.25941,30.46185 -50.0518,34.14481 z m 101.20895,-17.85943 c 5.96563,-92.0557 12.19093,-179.28422 18.6549,-262.05527 17.09402,-1.98404 34.18237,-3.76737 51.26174,-5.3473 -5.36004,82.37917 -10.138,169.14651 -14.28374,260.66182 -18.5299,2.03403 -37.07451,4.28581 -55.6329,6.74075 z m 103.13464,-11.4718 c 2.19031,-73.9967 4.94265,-144.87124 8.22075,-212.81689 -10.62897,0.80107 -21.25744,1.68025 -31.88482,2.63645 0.9082,-15.77197 1.83978,-31.39032 2.79449,-46.85734 38.60121,-3.34986 77.19584,-5.66067 115.7484,-6.8983 -0.40251,15.30835 -0.77141,30.76748 -1.1062,46.37964 -10.62574,0.37397 -21.2496,0.82884 -31.87112,1.36339 -2.14626,67.62042 -3.67448,138.16422 -4.54242,211.825 -19.11355,1.20012 -38.23322,2.66164 -57.35908,4.36805 z m 107.33464,-6.90014 c -0.24867,-90.42966 0.53022,-176.12776 2.25696,-257.45616 14.49033,-0.36251 28.98031,-0.57295 43.46823,-0.62932 3.02078,-0.0116 6.04153,-0.0167 9.06219,-0.0145 -0.0541,28.47331 -10e-4,57.4844 0.15842,87.0487 8.57406,-0.0317 17.15002,-0.005 25.72743,0.0772 -0.41988,-29.53786 -0.74359,-58.51906 -0.97379,-86.95917 17.51011,0.22497 35.02296,0.67775 52.53558,1.36209 2.40259,80.85932 5.32193,166.21339 8.80157,256.44747 -19.01675,-0.72636 -38.03035,-1.1435 -57.03345,-1.26081 -1.02881,-41.52783 -1.88318,-82.01568 -2.56958,-121.50206 -8.71343,-0.073 -17.42498,-0.0852 -26.13416,-0.0371 0.36473,39.51696 0.91931,80.02881 1.67085,121.5736 -3.27728,0.0284 -6.55438,0.0657 -9.83122,0.11182 -15.71706,0.22074 -31.42988,0.6368 -47.1391,1.23885 z m 233.07753,8.36962 c -23.98064,-2.20447 -41.91494,-9.81448 -53.86075,-23.41309 -11.83503,-13.57086 -18.26884,-32.56499 -19.30029,-56.9383 -2.6953,-63.69035 -5.16064,-124.87331 -7.40916,-183.69403 17.12639,0.84458 34.25849,1.91237 51.39366,3.20717 3.50655,58.30198 7.07021,118.91099 10.69443,181.9667 0.25545,4.4444 0.77035,8.77064 1.54542,12.97845 0.77121,4.11698 2.201,7.58608 4.29037,10.40841 2.09341,2.82786 5.2933,4.42712 9.60118,4.81563 4.41653,0.3983 7.51309,-0.5819 9.29049,-2.96071 1.76776,-2.47694 2.732,-5.78517 2.89289,-9.92444 0.26765,-4.11819 0.25661,-8.40367 -0.0328,-12.85543 -4.10466,-63.15969 -8.2411,-123.88036 -12.40768,-182.30061 17.16518,1.52669 34.33982,3.28365 51.52154,5.27507 5.57046,59.42131 10.91321,121.17145 16.0145,185.39008 1.95319,24.58807 -2.2652,42.69412 -12.59772,54.27851 -10.43233,11.58227 -27.63084,15.97335 -51.6362,13.76659 z m 92.0104,8.50866 c -7.18486,-91.14598 -15.00861,-177.5151 -23.42098,-259.47318 24.02738,3.04388 48.08309,6.55121 72.16103,10.53433 19.41146,3.21116 34.20639,10.1985 44.35601,20.65255 10.304,10.44779 17.08914,26.02498 20.08078,46.61743 0.54021,3.71853 1.07702,7.4448 1.61041,11.17894 1.72682,12.08904 0.71844,21.43875 -3.00415,28.0249 -3.63482,6.64027 -10.13376,10.14395 -19.47353,10.60769 12.98819,5.47788 22.36244,14.33535 28.04422,26.39887 5.82167,12.08256 9.76489,26.30599 11.74871,42.65227 2.15604,17.76543 2.21424,33.03399 0.23029,45.73802 -2.00021,12.808 -7.24785,21.96311 -15.68214,27.52358 -8.47474,5.58713 -21.2161,6.52569 -38.25802,3.13808 -26.1486,-5.19786 -52.28445,-9.71942 -78.39263,-13.59348 z m 39.67994,-158.42191 c 3.77519,0.6278 7.55128,1.26818 11.32825,1.92119 5.14332,0.88924 8.23298,-0.3674 9.26096,-3.79932 1.02571,-3.42433 1.22616,-7.69688 0.60054,-12.81231 -1.04012,-8.5048 -2.09295,-16.96702 -3.15832,-25.38693 -1.01733,-8.04029 -5.39603,-12.73061 -13.09794,-14.00753 -3.79969,-0.62998 -7.59864,-1.24771 -11.39672,-1.85327 2.20553,18.43669 4.36024,37.08155 6.46323,55.93817 z m 17.97333,119.71546 c 14.86985,2.7224 21.65137,-2.50795 20.23463,-16.03619 -1.18698,-11.33456 -2.39562,-22.59627 -3.62574,-33.78584 -0.83378,-7.58427 -2.72885,-13.76445 -5.66767,-18.53803 -2.83409,-4.83849 -7.55292,-7.86433 -14.14658,-9.03275 -3.45526,-0.61232 -6.90987,-1.21372 -10.36375,-1.80433 2.70667,25.55818 5.32099,51.50571 7.84066,77.85158 2.40914,0.63724 4.31578,1.08693 5.72845,1.34556 z"
         id="path104"
         style="font-size:192px;font-family:Anton;-inkscape-font-specification:Anton;text-align:center;white-space:pre;display:inline;fill:#ffffff;fill-opacity:0.995349;stroke:#000000;stroke-width:0;stroke-linecap:square;stroke-linejoin:round;stroke-opacity:0.562753;paint-order:markers stroke fill"
         aria-label="GITHUB" />
      <path
         id="path110"
         style="font-size:192px;font-family:Anton;-inkscape-font-specification:Anton;text-align:center;white-space:pre;display:inline;fill:url(#linearGradient113);fill-opacity:0.995349;stroke:#000000;stroke-width:0;stroke-linecap:square;stroke-linejoin:round;stroke-opacity:0.562753;paint-order:markers stroke fill"
         d="m 539.26115,240.13982 0.0571,3.31458 c 0.64939,37.35915 1.47682,75.7706 2.43256,114.95783 14.4631,0.14185 28.93398,0.45999 43.40616,0.95312 -1.55714,-40.61721 -2.98295,-80.1031 -4.31749,-118.77742 -13.8491,-0.22683 -27.71084,-0.37624 -41.57814,-0.44811 z m -39.615,0.22761 c -13.80122,0.17572 -27.5906,0.42825 -41.36122,0.7575 -0.31779,38.58838 -0.46796,77.93877 -0.38054,118.39691 13.42096,-0.46645 26.84179,-0.86767 40.2694,-1.05626 1.0267,-0.0145 2.05636,-0.0227 3.08342,-0.0355 -0.68908,-39.13171 -1.23453,-77.50621 -1.57906,-114.83337 z m 116.01408,0.90687 c 0.73522,17.89887 1.35744,34.56913 2.13387,52.91604 0.98566,23.29166 7.09493,40.68056 17.62563,52.76664 0.001,0.004 0.008,0.008 0.0116,0.0103 l 0.008,0.008 c 10.47194,11.90885 26.59367,19.02973 49.38805,21.12516 22.8203,2.09781 37.57527,-2.21828 45.98812,-11.5477 8.66044,-9.71849 12.77034,-25.65066 10.89689,-49.23514 -1.64125,-20.66107 -3.34688,-40.66501 -5.03947,-60.80419 -13.37848,-0.8016 -26.80381,-1.52961 -40.26939,-2.18363 1.21379,18.12913 2.44452,35.06203 3.65245,53.64864 0.30532,4.69695 0.31533,9.25139 0.032,13.66024 10e-4,-0.0358 0.009,-0.0673 0.0103,-0.10307 l -0.0103,0.1779 c 10e-4,-0.0231 -10e-4,-0.0513 0,-0.0747 -0.20888,5.00197 -1.41055,9.66842 -4.13258,13.4824 l -0.0463,0.0604 -0.0428,0.0604 c -3.71098,4.96666 -9.46414,6.16742 -15.30683,5.64051 -5.82983,-0.52577 -10.94308,-2.81499 -14.42486,-7.5183 -2.80963,-3.79525 -4.57418,-8.23527 -5.5018,-13.18721 v -0.008 -0.0145 c -0.8279,-4.49484 -1.37568,-9.09932 -1.64663,-13.81315 -1.07092,-18.6325 -2.10172,-35.58981 -3.16166,-53.76957 -13.36092,-0.50533 -26.75064,-0.93809 -40.16268,-1.29811 z m -218.97609,0.97804 c -13.87838,0.52175 -27.72358,1.12172 -41.52837,1.79955 -1.60498,39.80356 -3.09253,80.27358 -4.35307,121.99598 14.5696,-1.25025 29.13669,-2.36448 43.70133,-3.32171 0.50762,-41.18935 1.27313,-81.16684 2.18011,-120.47382 z m -100.59346,5.07856 c -13.1875,0.65936 -26.33532,1.38973 -39.43718,2.19074 -2.95639,41.48649 -5.86012,84.01355 -8.70258,127.62227 13.96532,-1.80297 27.92851,-3.51001 41.88045,-5.07502 1.94775,-42.62266 4.03943,-84.15449 6.25931,-124.73799 z m 475.4796,1.43323 c 3.78837,41.84141 7.44032,84.69004 10.93245,128.74254 24.45589,3.71023 48.93416,7.93105 73.42592,12.79956 16.2848,3.23712 26.76847,2.10083 33.22413,-2.1552 6.44336,-4.2479 10.95564,-11.57294 12.72841,-22.92469 1.86161,-11.92055 1.84231,-26.53401 -0.26316,-43.88271 -1.9125,-15.75876 -5.68273,-29.23471 -11.12805,-40.53613 l -0.0145,-0.0249 -0.0116,-0.0284 c -4.91984,-10.44582 -15.38764,-21.58814 -22.68062,-26.53909 -5.31475,-4.1674 -64.34519,-3.22862 -96.21397,-5.45096 z m -547.69989,3.55643 c -17.9335,1.54696 -35.73768,3.2285 -53.39614,5.04301 -0.63363,6.46645 -1.26357,12.90944 -1.90269,19.42163 2.08204,-0.32677 4.16319,-0.66006 6.24508,-0.98158 l 8.56032,-1.31943 -0.80378,8.62078 c -1.192,12.76435 -2.39615,25.63149 -3.6062,38.59785 -0.75831,8.12561 -2.5112,15.31596 -5.43776,21.26743 0.004,-0.009 0.009,-0.0129 0.0145,-0.0213 l -0.0284,0.0571 c 0.005,-0.0103 0.009,-0.0242 0.0145,-0.0355 -3.49507,7.24318 -9.54216,11.26902 -17.59717,12.58261 -8.13945,1.32738 -15.60251,-1.37547 -18.5183,-9.35694 l -0.0355,-0.10667 -0.0355,-0.10668 c -1.85071,-5.63757 -2.13202,-12.62236 -1.31233,-20.52412 2.32484,-22.41176 4.4702,-43.66474 6.70029,-65.47375 -13.58102,1.42963 -27.07063,2.93783 -40.46141,4.52377 -2.506893,21.14119 -4.894479,41.88057 -7.575198,63.60308 -6.681516,54.14216 7.831088,73.97132 43.633758,67.92059 19.68484,-3.32681 34.94796,-13.67595 45.39775,-30.98001 l 7.40091,-12.259 4.74783,13.51085 c 0.12724,0.36224 3.87703,11.06481 6.00324,17.13483 4.09614,-0.60085 8.18888,-1.19266 12.2839,-1.77465 3.21281,-44.39376 6.45503,-87.20204 9.70903,-129.34355 z m 588.78015,4.95054 8.79148,1.50437 c 3.46782,0.59299 6.93803,1.19564 10.40609,1.81021 8.36068,1.48157 14.64296,5.21954 18.76725,12.23409 -0.0182,-0.0288 -0.032,-0.0637 -0.0499,-0.0925 l 0.0748,0.128 c -0.008,-0.0128 -0.0163,-0.0222 -0.0249,-0.0355 3.56997,5.8357 5.67454,13.01906 6.57939,21.24964 1.23133,11.20092 2.4429,22.47533 3.6311,33.82158 1.95086,18.62863 -9.33673,26.8316 -28.17042,23.3835 -1.63946,-0.30018 -3.7585,-0.80585 -6.23799,-1.4617 l -4.54865,-1.20208 -0.44812,-4.68381 c -2.51753,-26.32358 -5.12705,-52.2477 -7.83124,-77.78253 z"
         sodipodi:nodetypes="cccccsccccsccccscscscsccscccccccsscccscscccccccccccccssssccccccccccccsccccscccsccsscccccccccsccccsssccscc" />
      <path
         id="path114"
         style="display:inline;opacity:1;fill:url(#linearGradient194);stroke:none;stroke-width:46.1594;stroke-linecap:square;stroke-linejoin:round;stroke-dasharray:none;stroke-opacity:1;paint-order:markers stroke fill"
         d="m 498.01201,114.70262 c -0.62823,0.005 -1.25673,0.008 -1.88487,0.0136 -12.14032,0.11207 -24.28247,0.39282 -36.42504,0.72102 -0.61688,40.63681 -0.95351,82.52564 -1.07611,125.38545 12.81207,-0.27183 25.65696,-0.47571 38.51684,-0.61129 l 2.0165,-0.004 -0.0674,-4.64084 7.19429,-0.0811 c 8.74292,-0.095 17.48606,-0.12762 26.23196,-0.10102 l 6.98503,0.0231 0.1113,4.85044 c 13.63246,0.0816 27.23322,0.24012 40.781,0.47555 -1.70752,-42.80115 -3.29598,-84.60628 -4.72658,-125.10903 -12.78089,-0.38806 -25.56062,-0.64479 -38.33935,-0.78736 0.36454,26.08265 0.78574,52.48841 1.31395,79.49068 l 0.14584,7.33977 -7.34069,-0.0284 c -8.54485,-0.0366 -17.09181,-0.0145 -25.63468,0.0623 l -7.15528,0.0632 -0.0774,-7.15521 c -0.29161,-27.13674 -0.46283,-53.68795 -0.56926,-79.90723 z m -67.43189,1.75808 c -33.83957,1.39116 -67.70721,3.59273 -101.58004,6.61732 -0.59761,10.70683 -1.18352,21.5 -1.75824,32.35192 7.89514,-0.72286 15.7925,-1.44862 23.68916,-2.08622 l 8.08392,-0.65136 -0.34792,8.10349 c -1.16225,27.09859 -2.17741,54.9923 -3.15875,83.06752 13.47427,-0.58307 27.04077,-1.08972 40.67788,-1.5191 0.51128,-28.99642 1.07663,-57.74647 1.81453,-85.70631 l 0.17462,-6.60173 6.5953,-0.36601 c 8.4034,-0.46796 16.81088,-0.84739 25.21952,-1.21595 0.18026,-10.73857 0.37681,-21.39899 0.59008,-31.99357 z m -75.07187,127.40267 c -1.38784,39.70591 -2.65248,80.07686 -3.68854,121.68644 1.03606,-41.60952 2.3007,-81.98057 3.68854,-121.68644 z M 610.38373,116.99703 c 1.75167,40.02583 3.73179,82.40378 5.69101,124.56686 13.21793,0.36368 26.35384,0.80113 39.38779,1.31167 -2.66444,-41.87694 -5.33703,-83.99996 -7.93798,-123.76177 -12.38336,-0.82942 -24.7631,-1.52318 -37.14082,-2.11676 z m 77.54137,5.26882 c 3.01065,39.41396 6.00344,81.09111 8.99836,122.53979 13.32885,0.69627 26.50863,1.47035 39.51764,2.32099 -0.008,-0.0779 -0.0145,-0.15677 -0.0226,-0.23461 -3.6806,-41.24048 -7.42377,-81.81714 -11.29129,-121.01957 -12.40517,-1.33257 -24.8063,-2.517 -37.20213,-3.6066 z m -385.70217,3.37724 c -12.28919,1.25085 -24.58358,2.58782 -36.88024,4.04876 -2.82689,39.05034 -5.59498,79.11683 -8.30212,120.19961 12.71289,-0.96459 25.5893,-1.85776 38.60892,-2.67808 0.004,-0.0668 0.008,-0.12874 0.009,-0.19566 2.04847,-41.46781 4.23652,-81.92961 6.56381,-121.37463 z m 457.91107,4.31003 c 4.17082,38.9306 7.71436,78.74388 11.62788,119.67399 15.4008,-0.54837 86.67422,2.85214 90.10049,2.10936 4.40954,-0.95594 9.66351,-3.68228 14.6726,-9.80322 1.7693,-2.16203 5.07433,-7.38992 5.07433,-7.38992 l 0.0248,-0.0428 0.0211,-0.0428 c 2.68392,-4.80826 3.69752,-12.19962 2.02256,-23.49415 -0.55306,-3.72926 -1.10826,-7.44362 -1.66713,-11.15128 -0.73768,-4.89377 -1.68904,-9.43439 -2.84335,-13.63452 -1.15433,-4.20015 -2.51152,-8.05807 -4.05584,-11.58664 -4.4e-4,-0.001 4.2e-4,-0.003 -10e-6,-0.004 -1.54403,-3.52736 -3.27614,-6.725 -5.18332,-9.60321 -1.90771,-2.87904 -3.99202,-5.43975 -6.23646,-7.69132 l -0.0215,-0.0176 -0.0184,-0.0212 c -2.21605,-2.25827 -4.70975,-4.35047 -7.48783,-6.26558 -2.77809,-1.91514 -5.8398,-3.65362 -9.19992,-5.20018 -3.3601,-1.54658 -7.01695,-2.90357 -10.97917,-4.05615 -3.96218,-1.15261 -8.23051,-2.10038 -12.81485,-2.8336 -21.03432,-3.36424 -42.04388,-6.30044 -63.03641,-8.94549 z m -572.81837,8.73038 c -3.63864,0.18145 -7.58891,0.60246 -11.85398,1.28322 -5.04541,0.8053 -9.80066,1.89491 -14.26884,3.27352 -4.46815,1.37862 -8.64824,3.04789 -12.54537,5.00342 -3.89711,1.95553 -7.51103,4.19739 -10.84324,6.73344 -3.33222,2.53606 -6.3853,5.3647 -9.15878,8.48489 -2.77349,3.12018 -5.26764,6.53206 -7.48854,10.23997 -2.22093,3.70789 -4.16862,7.71018 -5.84311,12.00941 -1.67451,4.29922 -3.07762,8.89545 -4.21186,13.78958 -1.13425,4.89416 -1.99816,10.08789 -2.59828,15.58056 -1.8319,16.76577 -3.92123,34.40967 -5.86299,51.55031 12.82778,-1.91453 26.0666,-3.74235 39.6858,-5.47923 1e-5,-1.1e-4 0.004,1e-4 0.004,-10e-6 2.02083,-20.85904 4.1278,-42.30055 6.06698,-62.61913 0.27148,-2.84466 0.82672,-5.61747 1.65911,-8.31324 0.83241,-2.69575 1.94199,-5.31448 3.32603,-7.8491 l 0.0283,-0.0535 0.0317,-0.0535 c 3.74222,-6.58919 10.20117,-10.15257 18.03787,-11.40952 3.64228,-0.5842 7.25502,-0.32253 10.29439,1.03327 1.51967,0.67789 2.89819,1.62905 4.06267,2.88391 1.16448,1.25487 2.11558,2.81494 2.78852,4.70808 -0.0184,-0.0463 -0.0254,-0.0995 -0.0433,-0.14557 l 0.0974,0.26266 c -0.0145,-0.0428 -0.0388,-0.0747 -0.0541,-0.11709 0.88951,2.32347 1.44034,4.90025 1.70174,7.64798 0.26145,2.74776 0.23346,5.66647 -0.032,8.67084 -0.39773,4.50336 -0.79744,9.04541 -1.19711,13.57431 12.7751,-1.95774 25.55173,-3.83791 38.33019,-5.58933 0.41365,-7.92648 0.45164,-15.16804 0.10796,-21.71992 -0.34365,-6.55186 -1.06898,-12.41407 -2.18159,-17.57863 -2.30997,-10.72249 -7.17354,-17.62644 -14.14234,-21.63664 l -0.0249,-0.014 -0.0251,-0.0176 c -5.18572,-3.03967 -12.89122,-4.67951 -23.84685,-4.1332 z m 613.35879,19.2664 9.37903,1.44715 c 3.81507,0.58737 7.63596,1.1867 11.45432,1.79881 2.73993,0.43924 5.21527,1.22443 7.40989,2.32546 2.19464,1.10102 4.11017,2.51749 5.72715,4.22648 1.617,1.70899 2.93703,3.70847 3.94403,5.97157 1.007,2.26309 1.69935,4.79021 2.064,7.55357 1.11167,8.42401 2.21061,16.88801 3.29745,25.3969 0.36601,2.86571 0.51834,5.63447 0.40694,8.27017 -0.11143,2.6357 -0.48652,5.13833 -1.1728,7.47484 -0.5883,2.00293 -1.50681,3.63778 -2.66583,4.9435 -1.15902,1.30574 -2.55981,2.28203 -4.11673,2.97032 -1.55694,0.68834 -3.26861,1.08903 -5.05068,1.23975 -1.78207,0.15059 -3.63322,0.0519 -5.46766,-0.25528 -3.76458,-0.63017 -7.53054,-1.24774 -11.29457,-1.85301 l -5.34997,-0.86054 -0.62981,-5.38468 c -2.20148,-18.82573 -4.45534,-37.44075 -6.75701,-55.84666 z m -576.2223,80.52874 c -17.48249,2.4419 -34.96497,5.06197 -52.4442,7.88401 -0.35527,3.84359 -0.71799,7.74762 -1.07602,11.61406 17.05083,-1.89543 34.58009,-3.65183 52.52936,-5.26334 0.33322,-4.6374 0.65704,-9.62229 0.99086,-14.23473 z m 32.58513,11.45907 c -2.72561,41.36445 -5.38931,83.76072 -7.99068,127.23264 2.60142,-43.47267 5.26502,-85.86752 7.99068,-127.23264 z m 615.99343,9.81347 c 3.02075,2.02379 5.60548,4.17744 7.78304,6.26756 -2.17918,-2.09769 -4.75194,-4.23684 -7.78304,-6.26756 z m 7.78304,6.26756 c 6.53445,6.27214 9.40333,11.98485 9.40333,11.98485 0,0 -2.89376,-5.71861 -9.40333,-11.98485 z m -262.40294,26.67822 c 0.27689,5.80805 0.87265,11.24284 1.77297,16.3147 -0.90032,-5.07186 -1.49608,-10.50665 -1.77297,-16.3147 z m 1.77297,16.3147 c 0.9003,5.07187 2.1066,9.77949 3.6071,14.13544 -1.5005,-4.35595 -2.70681,-9.06356 -3.6071,-14.13544 z m 3.6071,14.13544 c 1.50052,4.35597 3.29296,8.36032 5.37048,12.02063 -2.07752,-3.66031 -3.86996,-7.66466 -5.37048,-12.02063 z m 5.37048,12.02063 c 2.07756,3.66033 4.43879,6.97802 7.07017,9.963 -2.63138,-2.98498 -4.99261,-6.30267 -7.07017,-9.963 z m 112.40568,-29.95226 c 0.49848,5.87725 0.62147,11.27546 0.39252,16.21538 0.22897,-4.93992 0.1059,-10.33812 -0.39252,-16.21538 z m 0.39252,16.21538 c -0.22769,4.91247 -0.80649,9.36341 -1.70665,13.39567 0.89969,-4.03131 1.47901,-8.48465 1.70665,-13.39567 z m -72.8137,3.58642 c 2.17755,1.79805 4.70918,3.01601 7.47075,3.74059 -2.76157,-0.72458 -5.2932,-1.94254 -7.47075,-3.74059 z M 94.081879,348.12421 c -0.144574,5.68546 0.03766,10.84901 0.545218,15.50684 -0.507393,-4.65783 -0.689767,-9.8214 -0.545218,-15.50684 z m 0.545218,15.50684 c 0.507393,4.65785 1.339678,8.81169 2.499297,12.47697 -1.159619,-3.66528 -1.991904,-7.81912 -2.499297,-12.47697 z M 656.24051,359.1643 c 4.07926,1.73296 8.5422,3.16083 13.40583,4.27791 -4.86481,-1.11737 -9.32577,-2.54437 -13.40583,-4.27791 z m 13.40583,4.27791 c 4.86484,1.11739 10.13119,1.92386 15.8143,2.41569 -5.68311,-0.49183 -10.94946,-1.2983 -15.8143,-2.41569 z m 15.8143,2.41569 c 5.69065,0.49247 10.86819,0.58727 15.56474,0.30804 -4.69569,0.279 -9.8754,0.18424 -15.56474,-0.30804 z m 28.23677,-1.62685 c -3.75799,1.00302 -7.96791,1.65531 -12.66135,1.93483 4.69209,-0.27963 8.90425,-0.93206 12.66135,-1.93483 z m 175.92432,20.65111 c -1.57744,1.05209 -3.40611,1.91716 -5.51656,2.57235 2.11045,-0.65522 3.93912,-1.52026 5.51656,-2.57235 z m -750.61451,11.82871 c -4.4257,0.77229 -8.52409,1.14579 -12.29595,1.10063 3.77186,0.0451 7.87025,-0.32834 12.29595,-1.10063 z"
         sodipodi:nodetypes="scccccccccccccccccccssscccccccccccsscccccccccccccccccccccccsscccsssscscccsssscccssssssssscscsscccsssccccscccsscccccccssssssssssssscsscccccccccccccccccccccccccccccccccccccccccccccccccccccccccccc" />
    </g>
  </g>
</svg>
